<svg width="318" height="86" viewBox="0 0 318 86" fill="none" xmlns="http://www.w3.org/2000/svg">
<path d="M50.0597 6.41791C50.0597 9.96242 47.1863 12.8358 43.6418 12.8358C40.0973 12.8358 37.2239 9.96242 37.2239 6.41791C37.2239 2.8734 40.0973 0 43.6418 0C47.1863 0 50.0597 2.8734 50.0597 6.41791Z" fill="url(#paint0_linear_34_429)"/>
<path d="M48.7761 19.2537C48.7761 22.0893 46.4774 24.3881 43.6418 24.3881C40.8062 24.3881 38.5075 22.0893 38.5075 19.2537C38.5075 16.4181 40.8062 14.1194 43.6418 14.1194C46.4774 14.1194 48.7761 16.4181 48.7761 19.2537Z" fill="url(#paint1_linear_34_429)"/>
<path d="M35.9403 19.2537C35.9403 22.0893 33.6416 24.3881 30.806 24.3881C27.9704 24.3881 25.6716 22.0893 25.6716 19.2537C25.6716 16.4181 27.9704 14.1194 30.806 14.1194C33.6416 14.1194 35.9403 16.4181 35.9403 19.2537Z" fill="url(#paint2_linear_34_429)"/>
<path d="M61.6119 19.2537C61.6119 22.0893 59.3132 24.3881 56.4776 24.3881C53.642 24.3881 51.3433 22.0893 51.3433 19.2537C51.3433 16.4181 53.642 14.1194 56.4776 14.1194C59.3132 14.1194 61.6119 16.4181 61.6119 19.2537Z" fill="url(#paint3_linear_34_429)"/>
<path d="M35.9403 32.0896C35.9403 34.9252 33.6416 37.2239 30.806 37.2239C27.9704 37.2239 25.6716 34.9252 25.6716 32.0896C25.6716 29.2539 27.9704 26.9552 30.806 26.9552C33.6416 26.9552 35.9403 29.2539 35.9403 32.0896Z" fill="url(#paint4_linear_34_429)"/>
<path d="M23.1045 32.0896C23.1045 34.9252 20.8058 37.2239 17.9701 37.2239C15.1345 37.2239 12.8358 34.9252 12.8358 32.0896C12.8358 29.2539 15.1345 26.9552 17.9701 26.9552C20.8058 26.9552 23.1045 29.2539 23.1045 32.0896Z" fill="url(#paint5_linear_34_429)"/>
<path d="M48.7761 32.0896C48.7761 34.9252 46.4774 37.2239 43.6418 37.2239C40.8062 37.2239 38.5075 34.9252 38.5075 32.0896C38.5075 29.2539 40.8062 26.9552 43.6418 26.9552C46.4774 26.9552 48.7761 29.2539 48.7761 32.0896Z" fill="url(#paint6_linear_34_429)"/>
<path d="M61.6119 32.0896C61.6119 34.9252 59.3132 37.2239 56.4776 37.2239C53.642 37.2239 51.3433 34.9252 51.3433 32.0896C51.3433 29.2539 53.642 26.9552 56.4776 26.9552C59.3132 26.9552 61.6119 29.2539 61.6119 32.0896Z" fill="url(#paint7_linear_34_429)"/>
<path d="M74.4478 32.0896C74.4478 34.9252 72.149 37.2239 69.3134 37.2239C66.4778 37.2239 64.1791 34.9252 64.1791 32.0896C64.1791 29.2539 66.4778 26.9552 69.3134 26.9552C72.149 26.9552 74.4478 29.2539 74.4478 32.0896Z" fill="url(#paint8_linear_34_429)"/>
<path d="M23.1045 44.9254C23.1045 47.761 20.8058 50.0597 17.9701 50.0597C15.1345 50.0597 12.8358 47.761 12.8358 44.9254C12.8358 42.0898 15.1345 39.791 17.9701 39.791C20.8058 39.791 23.1045 42.0898 23.1045 44.9254Z" fill="url(#paint9_linear_34_429)"/>
<path d="M10.2687 44.9254C10.2687 47.761 7.96994 50.0597 5.13433 50.0597C2.29872 50.0597 0 47.761 0 44.9254C0 42.0898 2.29872 39.791 5.13433 39.791C7.96994 39.791 10.2687 42.0898 10.2687 44.9254Z" fill="url(#paint10_linear_34_429)"/>
<path d="M35.9403 44.9254C35.9403 47.761 33.6416 50.0597 30.806 50.0597C27.9704 50.0597 25.6716 47.761 25.6716 44.9254C25.6716 42.0898 27.9704 39.791 30.806 39.791C33.6416 39.791 35.9403 42.0898 35.9403 44.9254Z" fill="url(#paint11_linear_34_429)"/>
<path d="M48.7761 44.9254C48.7761 47.761 46.4774 50.0597 43.6418 50.0597C40.8062 50.0597 38.5075 47.761 38.5075 44.9254C38.5075 42.0898 40.8062 39.791 43.6418 39.791C46.4774 39.791 48.7761 42.0898 48.7761 44.9254Z" fill="url(#paint12_linear_34_429)"/>
<path d="M61.6119 44.9254C61.6119 47.761 59.3132 50.0597 56.4776 50.0597C53.642 50.0597 51.3433 47.761 51.3433 44.9254C51.3433 42.0898 53.642 39.791 56.4776 39.791C59.3132 39.791 61.6119 42.0898 61.6119 44.9254Z" fill="url(#paint13_linear_34_429)"/>
<path d="M35.9403 57.7612C35.9403 60.5968 33.6416 62.8955 30.806 62.8955C27.9704 62.8955 25.6716 60.5968 25.6716 57.7612C25.6716 54.9256 27.9704 52.6269 30.806 52.6269C33.6416 52.6269 35.9403 54.9256 35.9403 57.7612Z" fill="url(#paint14_linear_34_429)"/>
<path d="M48.7761 57.7612C48.7761 60.5968 46.4774 62.8955 43.6418 62.8955C40.8062 62.8955 38.5075 60.5968 38.5075 57.7612C38.5075 54.9256 40.8062 52.6269 43.6418 52.6269C46.4774 52.6269 48.7761 54.9256 48.7761 57.7612Z" fill="url(#paint15_linear_34_429)"/>
<path d="M61.6119 57.7612C61.6119 60.5968 59.3132 62.8955 56.4776 62.8955C53.642 62.8955 51.3433 60.5968 51.3433 57.7612C51.3433 54.9256 53.642 52.6269 56.4776 52.6269C59.3132 52.6269 61.6119 54.9256 61.6119 57.7612Z" fill="url(#paint16_linear_34_429)"/>
<path d="M34.6567 69.3134C34.6567 71.4401 32.9327 73.1642 30.806 73.1642C28.6793 73.1642 26.9552 71.4401 26.9552 69.3134C26.9552 67.1867 28.6793 65.4627 30.806 65.4627C32.9327 65.4627 34.6567 67.1867 34.6567 69.3134Z" fill="url(#paint17_linear_34_429)"/>
<path d="M47.4925 69.3134C47.4925 71.4401 45.7685 73.1642 43.6418 73.1642C41.5151 73.1642 39.791 71.4401 39.791 69.3134C39.791 67.1867 41.5151 65.4627 43.6418 65.4627C45.7685 65.4627 47.4925 67.1867 47.4925 69.3134Z" fill="url(#paint18_linear_34_429)"/>
<path d="M60.3284 69.3134C60.3284 71.4401 58.6043 73.1642 56.4776 73.1642C54.3509 73.1642 52.6269 71.4401 52.6269 69.3134C52.6269 67.1867 54.3509 65.4627 56.4776 65.4627C58.6043 65.4627 60.3284 67.1867 60.3284 69.3134Z" fill="url(#paint19_linear_34_429)"/>
<path d="M47.4925 82.1493C47.4925 84.276 45.7685 86 43.6418 86C41.5151 86 39.791 84.276 39.791 82.1493C39.791 80.0225 41.5151 78.2985 43.6418 78.2985C45.7685 78.2985 47.4925 80.0225 47.4925 82.1493Z" fill="url(#paint20_linear_34_429)"/>
<path d="M74.4478 44.9254C74.4478 47.761 72.149 50.0597 69.3134 50.0597C66.4778 50.0597 64.1791 47.761 64.1791 44.9254C64.1791 42.0898 66.4778 39.791 69.3134 39.791C72.149 39.791 74.4478 42.0898 74.4478 44.9254Z" fill="url(#paint21_linear_34_429)"/>
<path d="M87.2836 44.9254C87.2836 47.761 84.9849 50.0597 82.1493 50.0597C79.3136 50.0597 77.0149 47.761 77.0149 44.9254C77.0149 42.0898 79.3136 39.791 82.1493 39.791C84.9849 39.791 87.2836 42.0898 87.2836 44.9254Z" fill="url(#paint22_linear_34_429)"/>
<path d="M246.448 9.0539H264.418L280.463 30.806L296.507 9.0539H315.119L290.09 42.4052L317.045 77.0149H297.791L280.463 52.6269L264.418 77.0149H246.448L271.478 42.4052L246.448 9.0539Z" fill="#4D4D4D"/>
<path fill-rule="evenodd" clip-rule="evenodd" d="M105.254 9.0539V77.0149H145.687C153.388 77.0149 168.791 72.6101 168.791 57.5076C168.791 52.4735 166.224 44.9222 155.955 41.7759C159.164 40.5173 164.94 35.609 164.94 26.0442C164.94 14.088 151.463 8.98507 145.687 8.98507L105.254 9.0539ZM120.657 21.8209V37.371H139.91C143.761 37.371 148.896 35.06 148.896 29.5224C148.896 23.9848 143.761 21.8209 139.91 21.8209H120.657ZM120.657 47.4925V65.4627H141.194C147.554 65.4627 152.746 62.7703 152.746 56.4776C152.746 50.1849 146.97 47.4925 141.194 47.4925H120.657Z" fill="#4D4D4D"/>
<path fill-rule="evenodd" clip-rule="evenodd" d="M182.269 77.0149H198.313V57.7612H221.418C229.761 57.7612 242.597 51.2149 242.597 33.5954C242.597 15.9759 226.552 9.0539 216.925 9.0539H182.269V77.0149ZM197.672 21.8209V44.9254H215C219.493 44.9254 226.552 42.1534 226.552 33.5954C226.552 26.6734 220.776 21.8209 215 21.8209H197.672Z" fill="#4D4D4D"/>
<defs>
<linearGradient id="paint0_linear_34_429" x1="43.6418" y1="86" x2="43.6418" y2="-1.90764e-06" gradientUnits="userSpaceOnUse">
<stop stop-color="#F69E2C"/>
<stop offset="1" stop-color="#FF7D67"/>
</linearGradient>
<linearGradient id="paint1_linear_34_429" x1="43.6418" y1="86" x2="43.6418" y2="-1.90764e-06" gradientUnits="userSpaceOnUse">
<stop stop-color="#F69E2C"/>
<stop offset="1" stop-color="#FF7D67"/>
</linearGradient>
<linearGradient id="paint2_linear_34_429" x1="43.6418" y1="86" x2="43.6418" y2="-1.90764e-06" gradientUnits="userSpaceOnUse">
<stop stop-color="#F69E2C"/>
<stop offset="1" stop-color="#FF7D67"/>
</linearGradient>
<linearGradient id="paint3_linear_34_429" x1="43.6418" y1="86" x2="43.6418" y2="-1.90764e-06" gradientUnits="userSpaceOnUse">
<stop stop-color="#F69E2C"/>
<stop offset="1" stop-color="#FF7D67"/>
</linearGradient>
<linearGradient id="paint4_linear_34_429" x1="43.6418" y1="86" x2="43.6418" y2="-1.90764e-06" gradientUnits="userSpaceOnUse">
<stop stop-color="#F69E2C"/>
<stop offset="1" stop-color="#FF7D67"/>
</linearGradient>
<linearGradient id="paint5_linear_34_429" x1="43.6418" y1="86" x2="43.6418" y2="-1.90764e-06" gradientUnits="userSpaceOnUse">
<stop stop-color="#F69E2C"/>
<stop offset="1" stop-color="#FF7D67"/>
</linearGradient>
<linearGradient id="paint6_linear_34_429" x1="43.6418" y1="86" x2="43.6418" y2="-1.90764e-06" gradientUnits="userSpaceOnUse">
<stop stop-color="#F69E2C"/>
<stop offset="1" stop-color="#FF7D67"/>
</linearGradient>
<linearGradient id="paint7_linear_34_429" x1="43.6418" y1="86" x2="43.6418" y2="-1.90764e-06" gradientUnits="userSpaceOnUse">
<stop stop-color="#F69E2C"/>
<stop offset="1" stop-color="#FF7D67"/>
</linearGradient>
<linearGradient id="paint8_linear_34_429" x1="43.6418" y1="86" x2="43.6418" y2="-1.90764e-06" gradientUnits="userSpaceOnUse">
<stop stop-color="#F69E2C"/>
<stop offset="1" stop-color="#FF7D67"/>
</linearGradient>
<linearGradient id="paint9_linear_34_429" x1="43.6418" y1="86" x2="43.6418" y2="-1.90764e-06" gradientUnits="userSpaceOnUse">
<stop stop-color="#F69E2C"/>
<stop offset="1" stop-color="#FF7D67"/>
</linearGradient>
<linearGradient id="paint10_linear_34_429" x1="43.6418" y1="86" x2="43.6418" y2="-1.90764e-06" gradientUnits="userSpaceOnUse">
<stop stop-color="#F69E2C"/>
<stop offset="1" stop-color="#FF7D67"/>
</linearGradient>
<linearGradient id="paint11_linear_34_429" x1="43.6418" y1="86" x2="43.6418" y2="-1.90764e-06" gradientUnits="userSpaceOnUse">
<stop stop-color="#F69E2C"/>
<stop offset="1" stop-color="#FF7D67"/>
</linearGradient>
<linearGradient id="paint12_linear_34_429" x1="43.6418" y1="86" x2="43.6418" y2="-1.90764e-06" gradientUnits="userSpaceOnUse">
<stop stop-color="#F69E2C"/>
<stop offset="1" stop-color="#FF7D67"/>
</linearGradient>
<linearGradient id="paint13_linear_34_429" x1="43.6418" y1="86" x2="43.6418" y2="-1.90764e-06" gradientUnits="userSpaceOnUse">
<stop stop-color="#F69E2C"/>
<stop offset="1" stop-color="#FF7D67"/>
</linearGradient>
<linearGradient id="paint14_linear_34_429" x1="43.6418" y1="86" x2="43.6418" y2="-1.90764e-06" gradientUnits="userSpaceOnUse">
<stop stop-color="#F69E2C"/>
<stop offset="1" stop-color="#FF7D67"/>
</linearGradient>
<linearGradient id="paint15_linear_34_429" x1="43.6418" y1="86" x2="43.6418" y2="-1.90764e-06" gradientUnits="userSpaceOnUse">
<stop stop-color="#F69E2C"/>
<stop offset="1" stop-color="#FF7D67"/>
</linearGradient>
<linearGradient id="paint16_linear_34_429" x1="43.6418" y1="86" x2="43.6418" y2="-1.90764e-06" gradientUnits="userSpaceOnUse">
<stop stop-color="#F69E2C"/>
<stop offset="1" stop-color="#FF7D67"/>
</linearGradient>
<linearGradient id="paint17_linear_34_429" x1="43.6418" y1="86" x2="43.6418" y2="-1.90764e-06" gradientUnits="userSpaceOnUse">
<stop stop-color="#F69E2C"/>
<stop offset="1" stop-color="#FF7D67"/>
</linearGradient>
<linearGradient id="paint18_linear_34_429" x1="43.6418" y1="86" x2="43.6418" y2="-1.90764e-06" gradientUnits="userSpaceOnUse">
<stop stop-color="#F69E2C"/>
<stop offset="1" stop-color="#FF7D67"/>
</linearGradient>
<linearGradient id="paint19_linear_34_429" x1="43.6418" y1="86" x2="43.6418" y2="-1.90764e-06" gradientUnits="userSpaceOnUse">
<stop stop-color="#F69E2C"/>
<stop offset="1" stop-color="#FF7D67"/>
</linearGradient>
<linearGradient id="paint20_linear_34_429" x1="43.6418" y1="86" x2="43.6418" y2="-1.90764e-06" gradientUnits="userSpaceOnUse">
<stop stop-color="#F69E2C"/>
<stop offset="1" stop-color="#FF7D67"/>
</linearGradient>
<linearGradient id="paint21_linear_34_429" x1="43.6418" y1="86" x2="43.6418" y2="-1.90764e-06" gradientUnits="userSpaceOnUse">
<stop stop-color="#F69E2C"/>
<stop offset="1" stop-color="#FF7D67"/>
</linearGradient>
<linearGradient id="paint22_linear_34_429" x1="43.6418" y1="86" x2="43.6418" y2="-1.90764e-06" gradientUnits="userSpaceOnUse">
<stop stop-color="#F69E2C"/>
<stop offset="1" stop-color="#FF7D67"/>
</linearGradient>
</defs>
</svg>
